#!OML:ASF H:\LiuWeirdWalks\Patient Classification 1\Patient 1\Session 1\male.ASF
:FULLY-SPECIFIED
:DEGREES
127
root -0.680604 17.567 -26.0078 9.39274 5.22808 -3.74916
lowerback 7.72025 1.26513 4.79331
upperback -0.923583 2.32664 3.43457
thorax -5.25844 1.06131 0.608081
lowerneck -22.5107 -0.793976 3.47898
upperneck 18.766 -0.720044 -6.49639
head 9.60786 -0.856376 -2.95961
rclavicle -3.00165e-014 -2.38542e-015
rhumerus -31.3779 -8.86743 -78.5601
rradius 21.157
rwrist -0.223231
rhand -14.4311 -3.75167
rfingers 7.12502
rthumb 11.7134 -33.4042
lclavicle -3.00165e-014 -2.38542e-015
lhumerus -37.7917 3.36849 85.9859
lradius 31.1959
lwrist 10.111
lhand -11.7593 0.180563
lfingers 7.12502
lthumb 14.2889 29.6689
rfemur 1.12852 -4.58399 27.0449
rtibia 16.9445
rfoot -21.3127 -21.5979
rtoes -6.02259
lfemur -42.6396 2.6938 -12.9968
ltibia 40.3825
lfoot -11.6852 12.2371
ltoes -16.3844
128
root -0.671799 17.5586 -25.8991 9.64063 5.18178 -3.8386
lowerback 7.7492 1.38969 4.92834
upperback -0.881123 2.50516 3.44067
thorax -5.22113 1.14648 0.517742
lowerneck -22.5984 -0.858865 3.40974
upperneck 18.5664 -0.805093 -6.45992
head 9.54884 -0.897173 -2.94368
rclavicle 1.27222e-014 -3.97569e-015
rhumerus -31.0122 -8.51401 -78.8426
rradius 21.3301
rwrist -0.393627
rhand -14.3946 -3.74427
rfingers 7.12502
rthumb 11.7486 -33.3948
lclavicle 1.27222e-014 -3.97569e-015
lhumerus -37.8195 3.33942 85.9813
lradius 31.1443
lwrist 10.0956
lhand -11.766 0.195435
lfingers 7.12502
lthumb 14.2825 29.6843
rfemur 1.66706 -4.53262 27.1363
rtibia 16.0591
rfoot -20.935 -21.6094
rtoes -6.09857
lfemur -43.2753 2.64859 -12.8134
ltibia 39.402
lfoot -11.2611 11.7864
ltoes -16.6439
129
root -0.66231 17.5481 -25.7874 9.87676 5.12988 -3.92107
lowerback 7.7758 1.50567 5.04215
upperback -0.836864 2.67037 3.45505
thorax -5.18145 1.22599 0.449661
lowerneck -22.6481 -0.898371 3.36154
upperneck 18.3295 -0.854288 -6.45909
head 9.47198 -0.923405 -2.93716
rclavicle -4.17448e-015 -1.66979e-014
rhumerus -30.6043 -8.14795 -79.1169
rradius 21.4709
rwrist -0.526774
rhand -14.3633 -3.68279
rfingers 7.12502
rthumb 11.7788 -33.3316
lclavicle -4.17448e-015 -1.66979e-014
lhumerus -37.8451 3.36662 85.9632
lradius 31.0571
lwrist 10.0787
lhand -11.7531 0.198677
lfingers 7.12502
lthumb 14.2949 29.6866
rfemur 2.22482 -4.45692 27.223
rtibia 15.1855
rfoot -20.5629 -21.6302
rtoes -6.17197
lfemur -43.8832 2.61351 -12.6412
ltibia 38.5365
lfoot -10.888 11.4218
ltoes -16.7698
130
root -0.652463 17.5357 -25.6738 10.1083 5.05924 -3.99973
lowerback 7.81966 1.62223 5.13452
upperback -0.813352 2.83717 3.47273
thorax -5.17392 1.30614 0.396104
lowerneck -22.6076 -0.938868 3.33327
upperneck 18.0512 -0.902821 -6.49508
head 9.36466 -0.950906 -2.94417
rclavicle 9.74045e-015 -2.46493e-014
rhumerus -30.2174 -7.75459 -79.3845
rradius 21.6164
rwrist -0.655267
rhand -14.3466 -3.61919
rfingers 7.12502
rthumb 11.7949 -33.2671
lclavicle 9.74045e-015 -2.46493e-014
lhumerus -37.9058 3.42826 85.9266
lradius 30.948
lwrist 10.0444
lhand -11.6973 0.258508
lfingers 7.12502
lthumb 14.3487 29.7426
rfemur 2.7819 -4.32091 27.313
rtibia 14.3347
rfoot -20.1873 -21.681
rtoes -6.22574
lfemur -44.4724 2.60271 -12.4812
ltibia 37.813
lfoot -10.5653 11.1573
ltoes -16.8218
131
root -0.641162 17.5216 -25.5572 10.3315 4.95573 -4.0675
lowerback 7.86343 1.74789 5.21754
upperback -0.789126 3.0144 3.47667
thorax -5.16448 1.39153 0.332192
lowerneck -22.5205 -0.97625 3.31961
upperneck 17.7281 -0.953122 -6.53069
head 9.23374 -0.977303 -2.95169
rclavicle -7.15625e-015 -7.95139e-016
rhumerus -29.8158 -7.38903 -79.6537
rradius 21.7526
rwrist -0.770604
rhand -14.3329 -3.51935
rfingers 7.12502
rthumb 11.8081 -33.1665
lclavicle -7.15625e-015 -7.95139e-016
lhumerus -37.9602 3.50559 85.8633
lradius 30.806
lwrist 9.98179
lhand -11.6266 0.30393
lfingers 7.12502
lthumb 14.4168 29.7832
rfemur 3.33569 -4.16252 27.3809
rtibia 13.5276
rfoot -19.8144 -21.7207
rtoes -6.28576
lfemur -45.0359 2.63494 -12.3555
ltibia 37.2515
lfoot -10.2872 10.9872
ltoes -16.7896
132
root -0.629365 17.5055 -25.4381 10.5468 4.83803 -4.12652
lowerback 7.90701 1.87889 5.28419
upperback -0.768841 3.19692 3.47133
thorax -5.15867 1.47973 0.267019
lowerneck -22.4516 -1.02875 3.30069
upperneck 17.4626 -1.02491 -6.54746
head 9.12538 -1.01226 -2.95642
rclavicle 8.94531e-015 3.97569e-015
rhumerus -29.419 -7.0243 -79.9285
rradius 21.8979
rwrist -0.908795
rhand -14.3377 -3.42928
rfingers 7.12502
rthumb 11.8035 -33.0767
lclavicle 8.94531e-015 3.97569e-015
lhumerus -38.026 3.58323 85.7782
lradius 30.6513
lwrist 9.89388
lhand -11.5537 0.320042
lfingers 7.12502
lthumb 14.487 29.7943
rfemur 3.87788 -3.95417 27.4471
rtibia 12.7763
rfoot -19.4334 -21.8058
rtoes -6.39035
lfemur -45.5851 2.71729 -12.2684
ltibia 36.8714
lfoot -10.0467 10.8715
ltoes -16.692
133
root -0.616953 17.4878 -25.316 10.7512 4.71352 -4.16944
lowerback 7.95093 2.00877 5.32804
upperback -0.739041 3.37476 3.4587
thorax -5.14346 1.56649 0.207534
lowerneck -22.397 -1.07703 3.28629
upperneck 17.1783 -1.09441 -6.56019
head 9.01349 -1.04548 -2.95987
rclavicle 4.17448e-014 5.56597e-015
rhumerus -29.0003 -6.65814 -80.2097
rradius 22.0628
rwrist -1.04969
rhand -14.3425 -3.37439
rfingers 7.12502
rthumb 11.7988 -33.022
lclavicle 4.17448e-014 5.56597e-015
lhumerus -38.0813 3.68237 85.6736
lradius 30.4841
lwrist 9.76503
lhand -11.4948 0.323188
lfingers 7.12502
lthumb 14.5438 29.7934
rfemur 4.40839 -3.6959 27.5059
rtibia 12.0941
rfoot -19.0532 -21.9567
rtoes -6.55844
lfemur -46.115 2.83626 -12.2271
ltibia 36.6818
lfoot -9.84684 10.7807
ltoes -16.5697
134
root -0.603208 17.4683 -25.1901 10.9458 4.59746 -4.19035
lowerback 7.98188 2.13515 5.35431
upperback -0.710967 3.54462 3.43347
thorax -5.12276 1.64976 0.146116
lowerneck -22.37 -1.14147 3.26085
upperneck 16.9785 -1.18464 -6.54971
head 8.93488 -1.08716 -2.95879
rclavicle 3.37934e-014 4.69132e-014
rhumerus -28.5823 -6.29562 -80.4953
rradius 22.2399
rwrist -1.21149
rhand -14.3554 -3.34547
rfingers 7.12502
rthumb 11.7864 -32.9938
lclavicle 3.37934e-014 4.69132e-014
lhumerus -38.1455 3.77332 85.554
lradius 30.2995
lwrist 9.61896
lhand -11.4593 0.299587
lfingers 7.12502
lthumb 14.578 29.7673
rfemur 4.93053 -3.44107 27.5434
rtibia 11.4845
rfoot -18.6854 -22.1475
rtoes -6.84774
lfemur -46.6266 2.9865 -12.2452
ltibia 36.6891
lfoot -9.70276 10.6695
ltoes -16.4925
135
root -0.588577 17.4472 -25.0606 11.1249 4.48318 -4.18905
lowerback 8.01792 2.25641 5.35352
upperback -0.679429 3.70487 3.40154
thorax -5.10244 1.729 0.0937003
lowerneck -22.3855 -1.20086 3.23083
upperneck 16.827 -1.268 -6.52624
head 8.88102 -1.1252 -2.95347
rclavicle 1.94809e-014 3.02153e-014
rhumerus -28.161 -5.91007 -80.7835
rradius 22.4382
rwrist -1.39623
rhand -14.3604 -3.3053
rfingers 7.12502
rthumb 11.7816 -32.9539
lclavicle 1.94809e-014 3.02153e-014
lhumerus -38.2092 3.88336 85.4185
lradius 30.0994
lwrist 9.45091
lhand -11.4544 0.263687
lfingers 7.12502
lthumb 14.5827 29.731
rfemur 5.45857 -3.17059 27.5638
rtibia 10.9357
rfoot -18.3149 -22.3982
rtoes -7.26256
lfemur -47.1157 3.16408 -12.3165
ltibia 36.893
lfoot -9.61018 10.5166
ltoes -16.4595
136
root -0.573144 17.4245 -24.9273 11.2866 4.37382 -4.17922
lowerback 8.05024 2.37285 5.33482
upperback -0.647768 3.8567 3.3704
thorax -5.08114 1.80466 0.0531846
lowerneck -22.4426 -1.24679 3.20253
upperneck 16.753 -1.33163 -6.4997
head 8.86224 -1.15434 -2.94741
rclavicle 1.78906e-015 7.95139e-015
rhumerus -27.754 -5.4987 -81.0652
rradius 22.6666
rwrist -1.60629
rhand -14.3648 -3.21314
rfingers 7.12502
rthumb 11.7773 -32.862
lclavicle 1.78906e-015 7.95139e-015
lhumerus -38.2802 4.00549 85.2725
lradius 29.8836
lwrist 9.26177
lhand -11.4616 0.2285
lfingers 7.12502
lthumb 14.5758 29.6964
rfemur 6.00191 -2.88482 27.5837
rtibia 10.4364
rfoot -17.98 -22.7096
rtoes -7.73816
lfemur -47.5792 3.35986 -12.4197
ltibia 37.2875
lfoot -9.57707 10.3188
ltoes -16.4999
137
root -0.555816 17.4006 -24.7886 11.427 4.28064 -4.13886
lowerback 8.05113 2.48 5.29528
upperback -0.594879 3.98978 3.33107
thorax -5.02103 1.87274 0.019897
lowerneck -22.5074 -1.27993 3.18162
upperneck 16.6609 -1.38099 -6.47282
head 8.83932 -1.17631 -2.94024
rclavicle -1.63003e-014 -4.77083e-015
rhumerus -27.3499 -5.04416 -81.3508
rradius 22.9504
rwrist -1.86375
rhand -14.3679 -3.13989
rfingers 7.12502
rthumb 11.7744 -32.7889
lclavicle -1.63003e-014 -4.77083e-015
lhumerus -38.3172 4.15928 85.1104
lradius 29.6412
lwrist 9.05797
lhand -11.4724 0.219489
lfingers 7.12502
lthumb 14.5653 29.6881
rfemur 6.57621 -2.72838 27.5553
rtibia 9.97958
rfoot -17.673 -22.9566
rtoes -8.30931
lfemur -48.0018 3.55611 -12.582
ltibia 37.8583
lfoot -9.62793 10.0636
ltoes -16.5172
138
root -0.537172 17.3756 -24.6458 11.5528 4.20501 -4.07623
lowerback 8.06787 2.57581 5.23934
upperback -0.563235 4.1086 3.28578
thorax -4.99336 1.93315 -0.0100376
lowerneck -22.5284 -1.30222 3.18245
upperneck 16.564 -1.41718 -6.46763
head 8.80762 -1.19257 -2.94142
rclavicle -2.92213e-014 -3.57812e-014
rhumerus -27.0185 -4.54006 -81.6348
rradius 23.3032
rwrist -2.18707
rhand -14.3842 -3.08252
rfingers 7.12502
rthumb 11.7586 -32.7325
lclavicle -2.92213e-014 -3.57812e-014
lhumerus -38.3922 4.34048 84.9233
lradius 29.3783
lwrist 8.83233
lhand -11.4937 0.195053
lfingers 7.12502
lthumb 14.5449 29.6651
rfemur 7.17376 -2.5951 27.5014
rtibia 9.55245
rfoot -17.3754 -23.2262
rtoes -8.9353
lfemur -48.3892 3.74522 -12.7857
ltibia 38.5833
lfoot -9.75665 9.76814
ltoes -16.5611
